<?xml version="1.0" encoding="utf-8"?>
<!-- Generator: Adobe Illustrator 22.1.0, SVG Export Plug-In . SVG Version: 6.00 Build 0)  -->
<svg version="1.1" id="Layer_1" xmlns="http://www.w3.org/2000/svg" xmlns:xlink="http://www.w3.org/1999/xlink" x="0px" y="0px"
	 viewBox="0 0 79.8 39.1" style="enable-background:new 0 0 79.8 39.1;" xml:space="preserve">
<style type="text/css">
	.st0{fill:#444;}
</style>
<path class="st0" d="M21.3,2.4c5.5-3.2,14.5-3.2,20,0l9.2,5.3c5.6,3.2,5.6,8.3,0.1,11.5l-4.3,2.5l-10-5.8l4.3-2.5l-9.4-5.4L14,18.1
	l9.4,5.4l4.3-2.5l10,5.8l-4.3,2.5c-5.5,3.2-14.3,3.2-19.9,0l-9.3-5.4c-5.6-3.2-5.6-8.4-0.1-11.6L21.3,2.4z"/>
<path class="st0" d="M50.1,22.5c1.8-1.1,4.8-1.1,6.6,0l5.8,3.4l-3.3,1.9l-5.8-3.4l-5.8,3.3l2.9,1.7l1.3-0.8l-1.6-0.9l2.5-1.4l5,2.9
	l-3.8,2.2c-1.8,1.1-4.8,1.1-6.6,0l-2.9-1.7c-1.9-1.1-1.9-2.8,0-3.9L50.1,22.5z"/>
<path class="st0" d="M65.3,27l3.3,1.9l-12.4,7.2l-3.3-1.9L65.3,27z"/>
<path class="st0" d="M71.3,30l8.5,4.9l-3.3,1.9l-5.1-3L69,35.2l3.4,2l-3.3,1.9l-3.4-2l-3.5,2l-3.3-1.9L71.3,30z"/>
<ellipse transform="matrix(5.422033e-03 -1 1 5.422033e-03 16.1753 63.9729)" class="st0" cx="40.2" cy="23.9" rx="2" ry="3.5"/>
</svg>
